<svg width="300" height="273" viewBox="0 0 300 273" fill="none" xmlns="http://www.w3.org/2000/svg">
<ellipse cx="150" cy="136.5" rx="150" ry="136.5" fill="white"/>
<path d="M108.908 154.459L104.488 141.51C100.05 141.49 95.5736 140.787 91.0573 139.4C90.0934 144.857 89.606 148.78 89.595 151.17C89.5568 159.447 90.8083 165.639 93.3494 169.747C88.2117 173.564 82.8696 175.459 77.323 175.433C71.7764 175.408 67.8157 173.811 65.4409 170.643C63.0666 167.389 61.894 162.605 61.9231 156.29C61.9526 149.89 64.7238 131.855 70.2367 102.184L63.5159 88.4568C73.1015 82.357 81.9049 79.3255 89.9261 79.3625C96.07 79.3908 100.8 80.6927 104.116 83.268C110.528 80.7375 116.294 79.4841 121.414 79.5077C129.264 79.5439 135.481 82.2179 140.065 87.5298C144.649 92.8416 146.923 99.2095 146.889 106.633C146.863 112.18 145.431 117.55 142.591 122.742C139.751 127.849 135.593 132.011 130.117 135.228C132.98 143.519 136.19 150.659 139.746 156.649C143.388 162.639 146.996 166.624 150.571 168.603C148.771 170.472 145.99 172.081 142.229 173.429C138.553 174.862 135.222 175.572 132.235 175.559C126.432 175.532 121.788 174.06 118.303 171.142C114.818 168.14 111.687 162.578 108.908 154.459ZM96.7536 125.474C103.58 125.506 108.879 123.781 112.65 120.3C116.506 116.819 118.443 113.073 118.461 109.062C118.48 105.052 117.385 101.847 115.178 99.4472C112.97 97.0476 109.818 95.8384 105.722 95.8195C103.504 95.8093 101.284 96.0977 99.0623 96.6848C96.2565 112.971 94.5058 122.52 93.8102 125.333C94.4071 125.421 95.3882 125.468 96.7536 125.474Z" fill="#1E1D1D"/>
<path d="M171.04 175.328C165.579 175.328 161.653 173.749 159.264 170.592C156.875 167.349 155.68 162.571 155.68 156.256C155.68 149.856 158.368 131.808 163.744 102.112L156.96 88.416C166.603 82.1867 175.392 79.072 183.328 79.072C188.619 79.072 191.776 81.632 192.8 86.752C201.589 81.7173 210.208 79.2 218.656 79.2C224.203 79.2 229.067 80.48 233.248 83.04C238.197 86.0267 240.672 91.1893 240.672 98.528C240.672 110.645 233.973 119.435 220.576 124.896C234.229 127.285 241.056 134.923 241.056 147.808C241.056 156.171 237.6 162.827 230.688 167.776C223.776 172.725 216.011 175.2 207.392 175.2C198.859 175.2 191.989 173.408 186.784 169.824C181.749 173.493 176.501 175.328 171.04 175.328ZM211.488 144.992C211.488 140.981 210.293 138.037 207.904 136.16C205.6 134.283 202.485 133.344 198.56 133.344C194.635 133.344 190.24 134.155 185.376 135.776C184.011 143.029 183.328 149.216 183.328 154.336C187.509 156.299 191.861 157.28 196.384 157.28C200.907 157.28 204.533 156.213 207.264 154.08C210.08 151.947 211.488 148.917 211.488 144.992ZM203.168 96.096C199.84 96.096 196.256 96.736 192.416 98.016C191.904 101.344 190.325 109.877 187.68 123.616C194.763 123.104 200.779 121.397 205.728 118.496C210.677 115.509 213.152 111.243 213.152 105.696C213.152 99.296 209.824 96.096 203.168 96.096Z" fill="#1E1D1D"/>
<path d="M138.88 249.28C138.88 247.339 139.467 245.776 140.64 244.592C141.813 243.397 143.344 242.8 145.232 242.8C145.776 242.8 146.208 242.88 146.528 243.04C146.624 243.147 146.688 243.403 146.72 243.808C147.584 244.011 148.219 244.475 148.624 245.2C149.04 245.925 149.248 246.832 149.248 247.92C149.248 249.808 148.683 251.36 147.552 252.576C146.432 253.792 145.12 254.4 143.616 254.4C142.112 254.4 140.944 253.931 140.112 252.992C139.291 252.053 138.88 250.816 138.88 249.28ZM142.016 249.52C142.016 250.288 142.155 250.917 142.432 251.408C142.72 251.888 143.147 252.128 143.712 252.128C144.277 252.128 144.795 251.696 145.264 250.832C145.744 249.957 145.984 248.987 145.984 247.92C145.984 246.384 145.344 245.616 144.064 245.616C143.861 245.616 143.611 245.643 143.312 245.696C142.448 246.816 142.016 248.091 142.016 249.52ZM154.029 253.488C153.325 254.032 152.674 254.304 152.077 254.304C151.48 254.304 151.037 254.128 150.749 253.776C150.461 253.424 150.317 252.971 150.317 252.416C150.317 251.851 150.546 251.333 151.005 250.864C151.474 250.384 152.104 250.144 152.893 250.144C153.138 250.144 153.378 250.171 153.613 250.224C154.52 249.456 155.197 248.789 155.645 248.224C156.093 247.659 156.317 247.168 156.317 246.752C156.317 246.325 156.2 246 155.965 245.776C155.741 245.552 155.437 245.44 155.053 245.44C154.424 245.44 153.922 245.733 153.549 246.32C153.368 246.587 153.208 246.923 153.069 247.328C152.589 247.275 152.226 247.109 151.981 246.832C151.736 246.555 151.613 246.208 151.613 245.792C151.613 244.992 151.997 244.293 152.765 243.696C153.544 243.099 154.722 242.8 156.301 242.8C157.592 242.8 158.557 243.109 159.197 243.728C159.848 244.336 160.173 245.04 160.173 245.84C160.173 247.259 158.909 248.96 156.381 250.944C157.298 251.093 158.018 251.168 158.541 251.168L160.413 250.448C160.53 250.939 160.589 251.387 160.589 251.792C160.589 252.667 160.349 253.323 159.869 253.76C159.389 254.187 158.808 254.4 158.125 254.4C157.442 254.4 156.808 254.325 156.221 254.176C155.645 254.037 154.914 253.808 154.029 253.488Z" fill="#1E1D1D"/>
<path d="M133.96 222.392C133.96 221.784 134.104 220.712 134.392 219.176C134.68 217.64 134.856 216.669 134.92 216.264L134.072 214.552C135.427 213.784 136.579 213.4 137.528 213.4C137.997 213.4 138.349 213.56 138.584 213.88C139.469 213.571 140.285 213.416 141.032 213.416C142.419 213.416 143.496 213.869 144.264 214.776C145.032 215.672 145.416 216.792 145.416 218.136C145.416 219.907 144.765 221.533 143.464 223.016C142.835 223.731 142.003 224.307 140.968 224.744C139.944 225.181 138.845 225.4 137.672 225.4C136.499 225.4 135.587 225.144 134.936 224.632C134.285 224.109 133.96 223.363 133.96 222.392ZM137.352 223C137.576 223.043 137.827 223.064 138.104 223.064C139.267 223.064 140.173 222.648 140.824 221.816C141.475 220.973 141.8 219.939 141.8 218.712C141.8 217.72 141.576 216.931 141.128 216.344C140.68 215.757 140.035 215.464 139.192 215.464C139.064 215.464 138.851 215.485 138.552 215.528C138.477 216.072 138.28 217.288 137.96 219.176C137.651 221.053 137.448 222.328 137.352 223ZM150.718 225.4C149.257 225.4 148.126 225.021 147.326 224.264C146.537 223.507 146.142 222.483 146.142 221.192C146.142 219.475 146.729 218.083 147.902 217.016C149.086 215.939 150.569 215.4 152.35 215.4C153.342 215.4 154.094 215.624 154.606 216.072C155.118 216.509 155.374 217.091 155.374 217.816C155.374 218.808 154.889 219.635 153.918 220.296C152.958 220.947 151.47 221.277 149.454 221.288C149.486 221.971 149.641 222.509 149.918 222.904C150.195 223.288 150.542 223.48 150.958 223.48C151.374 223.48 151.731 223.341 152.03 223.064C152.339 222.787 152.494 222.333 152.494 221.704C154.051 221.704 154.83 222.072 154.83 222.808C154.83 223.437 154.446 224.029 153.678 224.584C152.91 225.128 151.923 225.4 150.718 225.4ZM152.078 217.272C151.534 217.272 151.033 217.544 150.574 218.088C150.126 218.632 149.801 219.272 149.598 220.008C150.665 219.923 151.465 219.683 151.998 219.288C152.542 218.883 152.814 218.456 152.814 218.008C152.814 217.795 152.745 217.619 152.606 217.48C152.478 217.341 152.302 217.272 152.078 217.272ZM157.458 223.24C157.458 223.24 157.479 221.773 157.522 218.84C157.522 217.603 157.234 216.685 156.658 216.088C157.212 215.629 157.82 215.4 158.482 215.4C159.346 215.4 159.932 215.784 160.242 216.552C160.508 217.213 160.641 218.216 160.641 219.56C160.641 220.893 160.615 222.189 160.562 223.448H161.106C162.727 220.045 163.538 217.832 163.538 216.808C163.538 216.563 163.49 216.323 163.394 216.088C164.183 215.629 164.898 215.4 165.538 215.4C166.37 215.4 166.786 215.901 166.786 216.904C166.786 217.363 166.668 217.939 166.434 218.632C166.199 219.315 165.836 220.2 165.345 221.288C164.866 222.365 164.615 222.925 164.594 222.968L164.802 223.896C164.354 224.301 163.714 224.653 162.882 224.952C162.05 225.251 161.17 225.4 160.242 225.4C159.314 225.4 158.615 225.235 158.146 224.904C157.687 224.563 157.458 224.008 157.458 223.24Z" fill="#1E1D1D"/>
</svg>
